<svg width="348" height="41" viewBox="0 0 348 41" fill="none" xmlns="http://www.w3.org/2000/svg">
<path d="M30.1723 0.842285L13.6406 40.8421H23.3338L39.8655 0.842285H30.1723Z" fill="#ffd01e"/>
<path d="M16.6684 0.842285L0.136719 40.8421H9.82098L26.3527 0.842285H16.6684Z" fill="#ffd01e"/>
<path d="M12.8412 0.842773H0V31.9142L12.8412 0.842773Z" fill="#ffd01e"/>
<path d="M27.1484 40.8421H39.9985V9.76172L27.1484 40.8421Z" fill="#ffd01e"/>
<path d="M69.1554 23.7679L79.0353 11.0601H72.5346L63.4017 22.4695V11.0601H55.7539V40.8421H63.4017V28.9791L71.4408 40.8421H80.2802L69.1554 23.7679Z" fill="#081B29"/>
<path d="M99.9378 29.1747H92.6457L96.4162 19.7928L99.9378 29.1747ZM104.402 40.8421H113.482L101.467 11.0601H95.4114L82.668 40.8421H87.8792L90.9561 33.2476H101.53L104.402 40.8421Z" fill="#081B29"/>
<path d="M128.998 11.0601H116.441V40.8421H124.134V30.9088H128.998C135.054 30.9088 140.416 27.1827 140.416 20.6376C140.416 14.0391 135.001 11.0601 128.998 11.0601ZM131.728 20.5398C131.728 24.5593 128.598 27.0938 125.076 27.0938H124.134V14.8306H125.076C128.598 14.8306 131.728 16.5202 131.728 20.5398Z" fill="#081B29"/>
<path d="M151.579 11.0601H143.887V40.8421H151.579V11.0601Z" fill="#081B29"/>
<path d="M178.826 11.0601H156.043V15.1241H163.637V40.8421H171.33V15.1241H178.826V11.0601Z" fill="#081B29"/>
<path d="M194.38 29.1747H187.088L190.859 19.7928L194.38 29.1747ZM198.844 40.8421H207.924L195.91 11.0601H189.854L177.102 40.8421H182.313L185.39 33.2476H195.963L198.844 40.8421Z" fill="#081B29"/>
<path d="M218.576 11.0601H210.875V40.8421H230.581V36.7692H218.576V11.0601Z" fill="#081B29"/>
<path d="M241.76 14.9284H242.409C245.29 14.9284 248.616 15.4264 248.616 18.5478C248.616 21.6247 245.29 22.3717 242.409 22.3717H241.76V14.9284ZM243.796 37.0626H241.76V26.249H243.796C246.428 26.249 249.852 27.9386 249.852 31.558C249.843 35.1773 246.42 37.0626 243.796 37.0626ZM251.239 24.3637C253.818 23.3232 255.455 21.438 255.455 18.1121C255.455 11.9582 249.897 11.0601 244.979 11.0601H234.059V40.8421H246.669C252.075 40.8421 257.936 38.1653 257.936 32.1538C257.936 28.0364 255.108 25.004 251.239 24.3637Z" fill="#081B29"/>
<path d="M275.695 29.1747H268.403L272.173 19.7928L275.695 29.1747ZM280.159 40.8421H289.238L277.224 11.0601H271.168L258.416 40.8421H263.627L266.704 33.2476H277.278L280.159 40.8421Z" fill="#081B29"/>
<path d="M313.49 29.4237L300.142 11.0601H292.689V40.8421H297.412V19.7928L312.351 40.8421H318.203V11.0601H313.49V29.4237Z" fill="#081B29"/>
<path d="M336.573 23.7679L346.453 11.0601H339.944L330.811 22.4695V11.0601H323.172V40.8421H330.811V28.9791L338.859 40.8421H347.689L336.573 23.7679Z" fill="#081B29"/>
</svg>
